<svg width="62" height="40" viewBox="0 0 62 40" fill="none" xmlns="http://www.w3.org/2000/svg">
<rect x="0.5" y="0.5" width="61" height="39" rx="15.5" fill="url(#paint0_linear_3_87)"/>
<rect x="0.5" y="0.5" width="61" height="39" rx="15.5" stroke="url(#paint1_linear_3_87)"/>
<path d="M35.86 19.523C35.86 19.859 35.836 20.153 35.788 20.405H28.156C28.192 21.425 28.474 22.181 29.002 22.673C29.53 23.165 30.184 23.411 30.964 23.411C31.648 23.411 32.224 23.237 32.692 22.889C33.172 22.541 33.466 22.079 33.574 21.503H35.77C35.638 22.199 35.362 22.817 34.942 23.357C34.522 23.897 33.976 24.323 33.304 24.635C32.632 24.935 31.882 25.085 31.054 25.085C30.094 25.085 29.242 24.881 28.498 24.473C27.766 24.065 27.19 23.477 26.77 22.709C26.35 21.941 26.14 21.035 26.14 19.991C26.14 18.959 26.35 18.059 26.77 17.291C27.19 16.523 27.766 15.935 28.498 15.527C29.242 15.119 30.094 14.915 31.054 14.915C32.026 14.915 32.872 15.119 33.592 15.527C34.324 15.923 34.882 16.475 35.266 17.183C35.662 17.879 35.86 18.659 35.86 19.523ZM33.79 19.469C33.814 18.821 33.7 18.281 33.448 17.849C33.208 17.405 32.872 17.081 32.44 16.877C32.02 16.661 31.558 16.553 31.054 16.553C30.25 16.553 29.578 16.799 29.038 17.291C28.498 17.783 28.204 18.509 28.156 19.469H33.79Z" fill="white" style="mix-blend-mode:overlay"/>
<defs>
<linearGradient id="paint0_linear_3_87" x1="-11" y1="3.69405e-07" x2="41.9398" y2="68.1355" gradientUnits="userSpaceOnUse">
<stop stop-color="white" stop-opacity="0.6"/>
<stop offset="1" stop-color="white" stop-opacity="0.4"/>
</linearGradient>
<linearGradient id="paint1_linear_3_87" x1="-5" y1="-3.66667" x2="13.3673" y2="46.4608" gradientUnits="userSpaceOnUse">
<stop stop-color="white" stop-opacity="0.85"/>
<stop offset="1" stop-color="white" stop-opacity="0.17"/>
</linearGradient>
</defs>
</svg>
